Coordinates
version=1
nRows=49
nColumns=12
inDegrees=yes

Units are S.I. units (second, meters, Newtons, ...)
Angles are in degrees

endheader
time	SC_y	SC_z	SC_x	AC_y	AC_z	AC_x	GH_y	GH_z	GH_yy	EL_x	PS_y
       0.0              -44.14           39.8          5.733          60.18         -5.019         -3.944          80.33          38.94         -157.5          17.27          40.36
   0.02709              -44.14           39.8          5.734          60.17         -5.019         -3.945           80.3          38.93         -157.5          17.28          40.36
   0.05418              -44.14           39.8          5.736          60.17         -5.019         -3.946          80.26          38.93         -157.4          17.29          40.36
   0.08127              -44.14           39.8          5.738          60.17         -5.018         -3.947          80.23          38.92         -157.4           17.3          40.36
    0.1084              -44.14          39.79          5.739          60.17         -5.018         -3.948          80.19          38.91         -157.3          17.31          40.37
    0.1354              -44.13          39.79          5.741          60.16         -5.018         -3.949          80.14           38.9         -157.2          17.32          40.37
    0.1625              -44.13          39.79          5.743          60.16         -5.018         -3.951           80.1          38.89         -157.2          17.33          40.38
    0.1896              -44.13          39.79          5.746          60.16         -5.018         -3.952          80.05          38.88         -157.1          17.35          40.38
    0.2167              -44.13          39.79          5.748          60.15         -5.018         -3.953           80.0          38.88         -157.0          17.36          40.39
    0.2438              -44.12          39.79          5.751          60.15         -5.018         -3.955          79.94          38.86         -157.0          17.38          40.39
    0.2709              -44.12          39.79          5.753          60.14         -5.017         -3.957          79.89          38.85         -156.9          17.39           40.4
     0.298              -44.12          39.79          5.756          60.14         -5.017         -3.958          79.82          38.84         -156.8          17.41           40.4
    0.3251              -44.12          39.79           5.76          60.14         -5.017          -3.96          79.75          38.83         -156.7          17.43          40.41
    0.3522              -44.11          39.78          5.763          60.13         -5.017         -3.962          79.68          38.81         -156.6          17.45          40.41
    0.3793              -44.11          39.78          5.767          60.12         -5.017         -3.965           79.6           38.8         -156.5          17.47          40.42
    0.4063               -44.1          39.78          5.771          60.12         -5.016         -3.967          79.51          38.78         -156.3           17.5          40.43
    0.4334               -44.1          39.78          5.775          60.11         -5.016          -3.97          79.42          38.76         -156.2          17.52          40.44
    0.4605              -44.09          39.78           5.78           60.1         -5.016         -3.973          79.31          38.75         -156.0          17.55          40.45
    0.4876              -44.09          39.77          5.785           60.1         -5.015         -3.976           79.2          38.72         -155.9          17.58          40.46
    0.5147              -44.08          39.77          5.791          60.09         -5.015         -3.979          79.08           38.7         -155.7          17.62          40.47
    0.5418              -44.08          39.77          5.797          60.08         -5.015         -3.983          78.94          38.67         -155.5          17.66          40.48
    0.5689              -44.07          39.77          5.804          60.07         -5.014         -3.987          78.79          38.65         -155.3           17.7           40.5
     0.596              -44.06          39.76          5.812          60.06         -5.014         -3.992          78.63          38.62         -155.0          17.74          40.51
    0.6231              -44.05          39.76           5.82          60.04         -5.013         -3.997          78.44          38.58         -154.8          17.79          40.53
    0.6502              -44.04          39.75           5.83          60.03         -5.012         -4.002          78.24          38.54         -154.5          17.85          40.55
    0.6772              -44.03          39.75           5.84          60.01         -5.012         -4.009          78.01           38.5         -154.2          17.91          40.57
    0.7043              -44.02          39.74          5.852          59.99         -5.011         -4.016          77.76          38.45         -153.8          17.98          40.59
    0.7314               -44.0          39.74          5.865          59.97          -5.01         -4.024          77.47           38.4         -153.4          18.06          40.62
    0.7585              -43.99          39.73           5.88          59.95         -5.009         -4.033          77.15          38.34         -152.9          18.15          40.64
    0.7856              -43.97          39.72          5.898          59.93         -5.008         -4.043          76.78          38.27         -152.4          18.25          40.68
    0.8127              -43.95          39.71          5.917           59.9         -5.007         -4.055          76.36          38.19         -151.8          18.37          40.72
    0.8398              -43.93           39.7          5.939          59.86         -5.005         -4.068          75.88           38.1         -151.1           18.5          40.76
    0.8669               -43.9          39.69          5.965          59.82         -5.004         -4.083          75.33          37.99         -150.3          18.66          40.81
     0.894              -43.87          39.68          5.995          59.78         -5.002         -4.101          74.69          37.87         -149.3          18.84          40.87
    0.9211              -43.83          39.66           6.03          59.72         -4.999         -4.122          73.93          37.73         -148.2          19.04          40.94
    0.9481              -43.79          39.64          6.071          59.66         -4.997         -4.147          73.04          37.56         -147.0          19.29          41.02
    0.9752              -43.74          39.62           6.12          59.59         -4.994         -4.177          71.99          37.36         -145.4          19.58          41.11
     1.002              -43.68          39.59          6.179           59.5          -4.99         -4.212          70.72          37.12         -143.6          19.93          41.23
     1.029               -43.6          39.56           6.25          59.39         -4.985         -4.254          69.19          36.83         -141.4          20.36          41.37
     1.056              -43.51          39.52          6.337          59.26          -4.98         -4.306          67.32          36.48         -138.7          20.88          41.54
     1.084               -43.4          39.47          6.445          59.09         -4.973         -4.371          65.01          36.04         -135.3          21.52          41.75
     1.111              -43.26          39.41          6.578          58.89         -4.964         -4.451          62.13           35.5         -131.1          22.32          42.01
     1.138              -43.08          39.34          6.747          58.63         -4.953         -4.552          58.51          34.81         -125.9          23.32          42.34
     1.165              -42.86          39.24          6.961          58.31         -4.939          -4.68          53.89          33.94         -119.2           24.6          42.76
     1.192              -42.57          39.11          7.236          57.89         -4.921         -4.844          47.99          32.82         -110.6          26.23           43.3
     1.219               -42.2          38.95          7.587          57.35         -4.899         -5.055          40.42          31.39         -99.67          28.33          43.98
     1.246              -41.73          38.75          8.037          56.67          -4.87         -5.324          30.75          29.56         -85.65          31.02          44.86
     1.273              -41.14          38.49          8.602          55.81         -4.833         -5.663          18.58          27.26         -68.02          34.39          45.97
       1.3              -40.42          38.18          9.291          54.76         -4.788         -6.076          3.762          24.46         -46.53           38.5          47.32
